<?xml version="1.0" encoding="UTF-8" standalone="no"?>
<!-- Created with Inkscape (http://www.inkscape.org/) -->

<svg
   xmlns:dc="http://purl.org/dc/elements/1.1/"
   xmlns:cc="http://creativecommons.org/ns#"
   xmlns:rdf="http://www.w3.org/1999/02/22-rdf-syntax-ns#"
   xmlns:svg="http://www.w3.org/2000/svg"
   xmlns="http://www.w3.org/2000/svg"
   xmlns:sodipodi="http://sodipodi.sourceforge.net/DTD/sodipodi-0.dtd"
   xmlns:inkscape="http://www.inkscape.org/namespaces/inkscape"
   version="1.1"
   id="svg10"
   width="946"
   height="674"
   viewBox="0 0 946 674"
   sodipodi:docname="business-logo-example-lineart.svg"
   inkscape:version="0.92.3 (2405546, 2018-03-11)">
  <metadata
     id="metadata16">
    <rdf:RDF>
      <cc:Work
         rdf:about="">
        <dc:format>image/svg+xml</dc:format>
        <dc:type
           rdf:resource="http://purl.org/dc/dcmitype/StillImage" />
        <dc:title></dc:title>
      </cc:Work>
    </rdf:RDF>
  </metadata>
  <defs
     id="defs14">
    <inkscape:path-effect
       effect="skeletal"
       id="path-effect4795"
       is_visible="true"
       pattern="M 0,5 C 0,2.24 2.24,0 5,0 7.76,0 10,2.24 10,5 10,7.76 7.76,10 5,10 2.24,10 0,7.76 0,5 Z"
       copytype="single_stretched"
       prop_scale="1.7638647"
       scale_y_rel="false"
       spacing="0"
       normal_offset="0"
       tang_offset="0"
       prop_units="false"
       vertical_pattern="false"
       fuse_tolerance="0" />
    <inkscape:path-effect
       effect="skeletal"
       id="path-effect4791"
       is_visible="true"
       pattern="M 0,5 C 0,2.24 2.24,0 5,0 7.76,0 10,2.24 10,5 10,7.76 7.76,10 5,10 2.24,10 0,7.76 0,5 Z"
       copytype="single_stretched"
       prop_scale="1.7638647"
       scale_y_rel="false"
       spacing="0"
       normal_offset="0"
       tang_offset="0"
       prop_units="false"
       vertical_pattern="false"
       fuse_tolerance="0" />
    <inkscape:path-effect
       effect="skeletal"
       id="path-effect4787"
       is_visible="true"
       pattern="M 0,5 C 0,2.24 2.24,0 5,0 7.76,0 10,2.24 10,5 10,7.76 7.76,10 5,10 2.24,10 0,7.76 0,5 Z"
       copytype="single_stretched"
       prop_scale="1.7638647"
       scale_y_rel="false"
       spacing="0"
       normal_offset="0"
       tang_offset="0"
       prop_units="false"
       vertical_pattern="false"
       fuse_tolerance="0" />
    <inkscape:path-effect
       effect="skeletal"
       id="path-effect4761"
       is_visible="true"
       pattern="M 0,5 C 0,2.24 2.24,0 5,0 7.76,0 10,2.24 10,5 10,7.76 7.76,10 5,10 2.24,10 0,7.76 0,5 Z"
       copytype="single_stretched"
       prop_scale="1.8296687"
       scale_y_rel="false"
       spacing="0"
       normal_offset="0"
       tang_offset="0"
       prop_units="false"
       vertical_pattern="false"
       fuse_tolerance="0" />
    <inkscape:path-effect
       effect="skeletal"
       id="path-effect4757"
       is_visible="true"
       pattern="M 0,5 C 0,2.24 2.24,0 5,0 7.76,0 10,2.24 10,5 10,7.76 7.76,10 5,10 2.24,10 0,7.76 0,5 Z"
       copytype="single_stretched"
       prop_scale="1.7638647"
       scale_y_rel="false"
       spacing="0"
       normal_offset="0"
       tang_offset="0"
       prop_units="false"
       vertical_pattern="false"
       fuse_tolerance="0" />
    <inkscape:path-effect
       effect="skeletal"
       id="path-effect4753"
       is_visible="true"
       pattern="M 0,5 C 0,2.24 2.24,0 5,0 7.76,0 10,2.24 10,5 10,7.76 7.76,10 5,10 2.24,10 0,7.76 0,5 Z"
       copytype="single_stretched"
       prop_scale="1.7638647"
       scale_y_rel="false"
       spacing="0"
       normal_offset="0"
       tang_offset="0"
       prop_units="false"
       vertical_pattern="false"
       fuse_tolerance="0" />
    <inkscape:path-effect
       effect="skeletal"
       id="path-effect4749"
       is_visible="true"
       pattern="M 0,5 C 0,2.24 2.24,0 5,0 7.76,0 10,2.24 10,5 10,7.76 7.76,10 5,10 2.24,10 0,7.76 0,5 Z"
       copytype="single_stretched"
       prop_scale="1.7638647"
       scale_y_rel="false"
       spacing="0"
       normal_offset="0"
       tang_offset="0"
       prop_units="false"
       vertical_pattern="false"
       fuse_tolerance="0" />
    <inkscape:path-effect
       effect="skeletal"
       id="path-effect4745"
       is_visible="true"
       pattern="M 0,5 C 0,2.24 2.24,0 5,0 7.76,0 10,2.24 10,5 10,7.76 7.76,10 5,10 2.24,10 0,7.76 0,5 Z"
       copytype="single_stretched"
       prop_scale="1.7638647"
       scale_y_rel="false"
       spacing="0"
       normal_offset="0"
       tang_offset="0"
       prop_units="false"
       vertical_pattern="false"
       fuse_tolerance="0" />
    <inkscape:path-effect
       effect="skeletal"
       id="path-effect4741"
       is_visible="true"
       pattern="m 0,19 c 0,-2.76 2.24,-5 5,-5 2.76,0 5,2.24 5,5 0,2.76 -2.24,5 -5,5 -2.76,0 -5,-2.24 -5,-5 z"
       copytype="single_stretched"
       prop_scale="1.7645699"
       scale_y_rel="false"
       spacing="0"
       normal_offset="0"
       tang_offset="0"
       prop_units="false"
       vertical_pattern="false"
       fuse_tolerance="0" />
    <inkscape:path-effect
       effect="skeletal"
       id="path-effect4737"
       is_visible="true"
       pattern="M 0,5 C 0,2.24 2.24,0 5,0 7.76,0 10,2.24 10,5 10,7.76 7.76,10 5,10 2.24,10 0,7.76 0,5 Z"
       copytype="single_stretched"
       prop_scale="1.7638647"
       scale_y_rel="false"
       spacing="0"
       normal_offset="0"
       tang_offset="0"
       prop_units="false"
       vertical_pattern="false"
       fuse_tolerance="0" />
    <inkscape:path-effect
       effect="skeletal"
       id="path-effect4733"
       is_visible="true"
       pattern="M 0,5 C 0,2.24 2.24,0 5,0 7.76,0 10,2.24 10,5 10,7.76 7.76,10 5,10 2.24,10 0,7.76 0,5 Z"
       copytype="single_stretched"
       prop_scale="1.7638647"
       scale_y_rel="false"
       spacing="0"
       normal_offset="0"
       tang_offset="0"
       prop_units="false"
       vertical_pattern="false"
       fuse_tolerance="0" />
    <inkscape:path-effect
       effect="skeletal"
       id="path-effect4729"
       is_visible="true"
       pattern="M 0,5 C 0,2.24 2.24,0 5,0 7.76,0 10,2.24 10,5 10,7.76 7.76,10 5,10 2.24,10 0,7.76 0,5 Z"
       copytype="single_stretched"
       prop_scale="1.7638647"
       scale_y_rel="false"
       spacing="0"
       normal_offset="0"
       tang_offset="0"
       prop_units="false"
       vertical_pattern="false"
       fuse_tolerance="0" />
    <inkscape:path-effect
       effect="skeletal"
       id="path-effect4757-5"
       is_visible="true"
       pattern="m -1.50815,289.24708 c 0,-2.76 2.24,-5 5,-5 2.76,0 5,2.24 5,5 0,2.76 -2.24,5 -5,5 -2.76,0 -5,-2.24 -5,-5 z"
       copytype="single_stretched"
       prop_scale="0.74448066"
       scale_y_rel="false"
       spacing="0"
       normal_offset="0"
       tang_offset="0"
       prop_units="false"
       vertical_pattern="false"
       fuse_tolerance="0" />
  </defs>
  <sodipodi:namedview
     pagecolor="#ffffff"
     bordercolor="#666666"
     borderopacity="1"
     objecttolerance="10"
     gridtolerance="10"
     guidetolerance="10"
     inkscape:pageopacity="0"
     inkscape:pageshadow="2"
     inkscape:window-width="1920"
     inkscape:window-height="1001"
     id="namedview12"
     showgrid="false"
     showborder="false"
     inkscape:zoom="0.125"
     inkscape:cx="2566.6287"
     inkscape:cy="600.6482"
     inkscape:window-x="-9"
     inkscape:window-y="-9"
     inkscape:window-maximized="1"
     inkscape:current-layer="svg10" />
  <g
     id="g4998"
     transform="matrix(1.8165908,0,0,2.3980369,495.21114,-573.34815)">
    <path
       inkscape:connector-curvature="0"
       id="path4717"
       d="M 101.7393,263 610.42963,96"
       style="fill:none;stroke:#000000;stroke-width:1.30000055px;stroke-linecap:butt;stroke-linejoin:miter;stroke-opacity:1" />
    <path
       inkscape:original-d="M 958.56992,253 610.42963,96"
       inkscape:path-effect="#path-effect4729"
       inkscape:connector-curvature="0"
       id="path4727"
       d="m 958.56992,253 c -2.00134,4.43787 -81.60903,-27.12838 -177.69575,-70.46038 -96.08673,-43.332 -172.44588,-82.10175 -170.44454,-86.539622 2.00133,-4.437869 81.60903,27.128382 177.69575,70.460382 96.08672,43.332 172.44588,82.10175 170.44454,86.53962 z"
       style="fill:#000000;stroke:none;stroke-width:1.30000055px;stroke-linecap:butt;stroke-linejoin:miter;stroke-opacity:1" />
    <path
       inkscape:original-d="M 610.42963,96 101.7393,263"
       inkscape:path-effect="#path-effect4733"
       inkscape:connector-curvature="0"
       id="path4731"
       d="m 610.42963,96 c 1.51849,4.62539 -111.19575,45.78733 -251.59428,91.87933 C 218.43682,233.97133 103.25779,267.62539 101.7393,263 100.22081,258.37461 212.93505,217.21267 353.33358,171.12067 493.73211,125.02867 608.91114,91.374612 610.42963,96 Z"
       style="fill:#000000;stroke:none;stroke-width:1.30000055px;stroke-linecap:butt;stroke-linejoin:miter;stroke-opacity:1" />
    <path
       inkscape:original-d="M 101.7393,263 93.289299,583 598.59968,566"
       inkscape:path-effect="#path-effect4737"
       inkscape:connector-curvature="0"
       id="path4735"
       d="m 101.7393,263 c 4.95303,0.13079 2.62057,136.27159 -4.298197,315.81804 0,0 -10e-7,3e-5 -10e-7,3e-5 29.474818,-1.32774 60.515138,-2.70527 91.962188,-4.05694 224.89059,-9.66632 409.00306,-14.50761 409.19639,-8.76113 0.19282,5.73127 -185.40163,13.35837 -416.04453,19.00219 -32.02593,0.78368 -63.55681,1.51133 -93.417654,2.17974 0,-10e-6 0,-2e-5 0,-3e-5 C 91.87814,400.28228 96.803312,262.86966 101.7393,263 Z"
       style="fill:#000000;stroke:none;stroke-width:1.30000055px;stroke-linecap:butt;stroke-linejoin:miter;stroke-opacity:1" />
    <path
       inkscape:original-d="M 610.42963,96 598.59968,558"
       inkscape:path-effect="#path-effect4741"
       inkscape:connector-curvature="0"
       id="path4739"
       d="m 610.42963,96 c 4.86862,0.124666 6.17005,103.71384 2.90498,231.22585 -3.26506,127.512 -9.86631,230.89882 -14.73493,230.77416 -4.86862,-0.12467 -6.17005,-103.71385 -2.90498,-231.22585 C 598.95976,199.26216 605.56101,95.875334 610.42963,96 Z"
       style="fill:#000000;stroke:none;stroke-width:1.30000055px;stroke-linecap:butt;stroke-linejoin:miter;stroke-opacity:1" />
    <path
       inkscape:original-d="m 601.97966,565 348.14023,22"
       inkscape:path-effect="#path-effect4745"
       inkscape:connector-curvature="0"
       id="path4743"
       d="m 601.97966,565 c 0.30703,-4.85858 78.53962,-3.87377 174.62632,2.19823 96.08671,6.072 173.82094,14.94319 173.51391,19.80177 -0.30703,4.85858 -78.53962,3.87377 -174.62632,-2.19823 C 679.40686,578.72977 601.67263,569.85858 601.97966,565 Z"
       style="fill:#000000;stroke:none;stroke-width:1.30000055px;stroke-linecap:butt;stroke-linejoin:miter;stroke-opacity:1" />
    <path
       inkscape:original-d="m 958.56992,253 -6.76003,329"
       inkscape:path-effect="#path-effect4749"
       inkscape:connector-curvature="0"
       id="path4747"
       d="m 958.56992,253 c 4.86724,0.10001 7.30322,73.87718 5.43745,164.68118 -1.86577,90.804 -7.33024,164.41884 -12.19748,164.31883 -4.86724,-0.10001 -7.30322,-73.87718 -5.43745,-164.68118 1.86577,-90.804 7.33024,-164.41884 12.19748,-164.31883 z"
       style="fill:#000000;stroke:none;stroke-width:1.30000055px;stroke-linecap:butt;stroke-linejoin:miter;stroke-opacity:1" />
    <path
       inkscape:original-d="m 972.08992,390 430.95028,-50 8.45,286"
       inkscape:path-effect="#path-effect4753"
       inkscape:connector-curvature="0"
       id="path4751"
       d="m 972.08992,390 c -0.66484,-5.73028 160.17868,-25.68013 360.64688,-46.72192 25.3419,-2.65998 50.3163,-5.24584 74.1207,-7.69343 0,10e-6 0,2e-5 0,3e-5 7.2327,166.78961 9.6721,290.26643 4.6327,290.41533 -5.0602,0.1495 -9.8327,-121.87327 -12.2673,-281.58463 0,0 0,-3e-5 0,-3e-5 -23.3804,3.02686 -47.8463,6.1773 -72.6113,9.33082 C 1132.3046,378.48869 972.75689,395.74858 972.08992,390 Z"
       style="fill:#000000;stroke:none;stroke-width:1.30000055px;stroke-linecap:butt;stroke-linejoin:miter;stroke-opacity:1" />
    <path
       inkscape:original-d="M 1406.4478,337.50584 1482.4702,382"
       inkscape:path-effect="#path-effect4757"
       inkscape:connector-curvature="0"
       id="path4755"
       d="m 1406.4478,337.50584 c 2.4591,-4.20155 21.4839,2.35519 42.466,14.63558 20.9822,12.28039 36.0155,25.65703 33.5564,29.85858 -2.4591,4.20155 -21.4838,-2.35519 -42.466,-14.63558 -20.9822,-12.28039 -36.0155,-25.65703 -33.5564,-29.85858 z"
       style="fill:#000000;stroke:none;stroke-width:1.30000055px;stroke-linecap:butt;stroke-linejoin:miter;stroke-opacity:1" />
    <path
       inkscape:original-d="m 1479.0903,381 3.3799,254"
       inkscape:path-effect="#path-effect4761"
       inkscape:connector-curvature="0"
       id="path4759"
       d="m 1479.0903,381 c 5.0494,-0.0672 9.9046,56.77428 10.8375,126.87828 0.9328,70.104 -2.4082,127.05453 -7.4576,127.12172 -5.0494,0.0672 -9.9046,-56.77427 -10.8375,-126.87827 -0.9328,-70.10401 2.4082,-127.05454 7.4576,-127.12173 z"
       style="fill:#000000;stroke:none;stroke-width:1.34581757px;stroke-linecap:butt;stroke-linejoin:miter;stroke-opacity:1" />
    <path
       inkscape:original-d="m 1235.7301,646 1.69,-70 -267.02019,-20 -1.69002,87 255.19021,3"
       inkscape:path-effect="#path-effect4787"
       inkscape:connector-curvature="0"
       id="path4785"
       d="m 1235.7301,646 c -2.1438,-0.0518 -2.9996,-26.06351 -1.1891,-67.39246 -62.3033,-3.61753 -154.3256,-10.02176 -260.06171,-18.12465 2e-5,-0.001 -0.0333,1.99429 -0.0333,1.99307 -0.44071,26.32907 -0.91204,51.77343 -1.4155,76.33606 0,0 3e-5,0 3e-5,0 143.08075,-0.29734 250.92605,2.37903 250.86955,7.18798 -0.056,4.79036 -109.218,4.9528 -259.51082,1.18798 -10e-6,0 -10e-6,0 -2e-5,0 0.55064,-29.70051 1.18093,-60.96695 1.87839,-93.22907 3e-5,-0.001 0.0529,-2.44048 0.0529,-2.4418 113.46537,8.31466 211.49307,16.1469 273.97867,21.87535 -0.3044,46.47353 -2.4302,72.65918 -4.5691,72.60754 z"
       style="fill:#000000;stroke:none;stroke-width:1.30000055px;stroke-linecap:butt;stroke-linejoin:miter;stroke-opacity:1" />
    <path
       inkscape:original-d="m 972.08992,390 -5.38351,163.49149"
       inkscape:path-effect="#path-effect4791"
       inkscape:connector-curvature="0"
       id="path4789"
       d="m 972.08992,390 c 4.86563,0.16022 7.60864,36.91234 6.12279,82.036 -1.48585,45.12365 -6.64067,81.61572 -11.5063,81.4555 -4.86563,-0.16022 -7.60864,-36.91235 -6.12279,-82.036 1.48585,-45.12365 6.64067,-81.61572 11.5063,-81.4555 z"
       style="fill:#000000;stroke:none;stroke-width:1.30000055px;stroke-linecap:butt;stroke-linejoin:miter;stroke-opacity:1" />
    <path
       inkscape:original-d="m 1249.2501,640 226.4602,3"
       inkscape:path-effect="#path-effect4795"
       inkscape:connector-curvature="0"
       id="path4793"
       d="m 1249.2501,640 c 0.064,-4.86784 50.8439,-8.14655 113.3469,-7.31855 62.503,0.828 113.1778,5.45071 113.1133,10.31855 -0.064,4.86784 -50.8439,8.14655 -113.3469,7.31855 -62.503,-0.828 -113.1778,-5.45071 -113.1133,-10.31855 z"
       style="fill:#000000;stroke:none;stroke-width:1.30000055px;stroke-linecap:butt;stroke-linejoin:miter;stroke-opacity:1" />
    <rect
       inkscape:transform-center-y="-48.750345"
       inkscape:transform-center-x="22.54734"
       transform="matrix(0.94599168,-0.32419092,-0.04225095,0.99910703,0,0)"
       ry="0"
       y="349.32404"
       x="176.58206"
       height="29.219395"
       width="84.928284"
       id="rect4825"
       style="opacity:0.73999999;fill:#000000;stroke-width:1.49520206" />
    <rect
       inkscape:transform-center-y="-48.750343"
       inkscape:transform-center-x="22.547399"
       transform="matrix(0.94599168,-0.32419092,-0.04225095,0.99910703,0,0)"
       ry="0"
       y="367.81335"
       x="469.83133"
       height="29.219395"
       width="84.928284"
       id="rect4825-7"
       style="opacity:0.73999999;fill:#000000;stroke-width:1.49520206" />
    <rect
       inkscape:transform-center-y="-48.750323"
       inkscape:transform-center-x="22.547349"
       transform="matrix(0.94599168,-0.32419092,-0.04225095,0.99910703,0,0)"
       ry="0"
       y="447.06537"
       x="316.16022"
       height="29.219395"
       width="84.928284"
       id="rect4825-72"
       style="opacity:0.73999999;fill:#000000;stroke-width:1.49520206" />
    <rect
       inkscape:transform-center-y="-48.750367"
       inkscape:transform-center-x="22.547326"
       transform="matrix(0.94599168,-0.32419092,-0.04225095,0.99910703,0,0)"
       ry="0"
       y="442.23724"
       x="174.81219"
       height="29.219395"
       width="84.928284"
       id="rect4825-1"
       style="opacity:0.73999999;fill:#000000;stroke-width:1.49520206" />
    <rect
       inkscape:transform-center-y="-48.750333"
       inkscape:transform-center-x="22.54741"
       transform="matrix(0.94599168,-0.32419092,-0.04225095,0.99910703,0,0)"
       ry="0"
       y="455.74423"
       x="475.54504"
       height="29.219395"
       width="84.928284"
       id="rect4825-3"
       style="opacity:0.73999999;fill:#000000;stroke-width:1.49520206" />
    <rect
       inkscape:transform-center-y="-48.750334"
       inkscape:transform-center-x="22.547306"
       transform="matrix(0.94599168,-0.32419092,-0.04225095,0.99910703,0,0)"
       ry="0"
       y="606.16071"
       x="473.33081"
       height="29.219395"
       width="84.928284"
       id="rect4825-35"
       style="opacity:0.73999999;fill:#000000;stroke-width:1.49520206" />
    <rect
       inkscape:transform-center-y="-48.750403"
       inkscape:transform-center-x="-20.426786"
       transform="matrix(-0.93531835,-0.35380726,0.03828355,0.99926692,0,0)"
       ry="0"
       y="-67.881477"
       x="-811.18042"
       height="29.21472"
       width="77.819138"
       id="rect4825-5"
       style="opacity:0.73999999;fill:#000000;stroke-width:1.43114042" />
    <rect
       inkscape:transform-center-y="-48.750325"
       inkscape:transform-center-x="-20.426938"
       transform="matrix(-0.93531835,-0.35380726,0.03828355,0.99926692,0,0)"
       ry="0"
       y="-67.010986"
       x="-955.69476"
       height="29.21472"
       width="77.819138"
       id="rect4825-6"
       style="opacity:0.73999999;fill:#000000;stroke-width:1.43114042" />
    <rect
       inkscape:transform-center-y="-48.750354"
       inkscape:transform-center-x="-20.894004"
       transform="matrix(-0.93791742,-0.34685863,0.03915766,0.99923304,0,0)"
       ry="0"
       y="42.706818"
       x="-941.29346"
       height="29.215708"
       width="79.378098"
       id="rect4825-56"
       style="opacity:0.73999999;fill:#000000;stroke-width:1.44542861" />
    <rect
       inkscape:transform-center-y="-44.7241"
       inkscape:transform-center-x="22.547434"
       transform="matrix(0.99241652,-0.12292054,-0.05061728,0.99871812,0,0)"
       ry="0"
       y="553.4292"
       x="1052.1659"
       height="24.389812"
       width="80.955368"
       id="rect4825-9"
       style="opacity:0.73999999;fill:#000000;stroke-width:1.33372152" />
    <rect
       inkscape:transform-center-y="-44.724108"
       inkscape:transform-center-x="22.547295"
       transform="matrix(0.99241652,-0.12292054,-0.05061728,0.99871812,0,0)"
       ry="0"
       y="610.65094"
       x="1051.6788"
       height="24.389812"
       width="80.955368"
       id="rect4825-9-1"
       style="opacity:0.73999999;fill:#000000;stroke-width:1.33372152" />
    <rect
       inkscape:transform-center-y="-44.724164"
       inkscape:transform-center-x="22.547342"
       transform="matrix(0.99241652,-0.12292054,-0.05061728,0.99871812,0,0)"
       ry="0"
       y="561.77356"
       x="1321.6523"
       height="24.389812"
       width="80.955368"
       id="rect4825-9-4"
       style="opacity:0.73999999;fill:#000000;stroke-width:1.33372152" />
    <rect
       inkscape:transform-center-y="-44.724077"
       inkscape:transform-center-x="22.54743"
       transform="matrix(0.99241652,-0.12292054,-0.05061728,0.99871812,0,0)"
       ry="0"
       y="556.40582"
       x="1188.5511"
       height="24.389812"
       width="80.955368"
       id="rect4825-9-8"
       style="opacity:0.73999999;fill:#000000;stroke-width:1.33372152" />
    <rect
       inkscape:transform-center-y="-44.724098"
       inkscape:transform-center-x="22.547302"
       transform="matrix(0.99241652,-0.12292054,-0.05061728,0.99871812,0,0)"
       ry="0"
       y="659.30078"
       x="1324.9237"
       height="24.389812"
       width="80.955368"
       id="rect4825-9-0"
       style="opacity:0.73999999;fill:#000000;stroke-width:1.33372152" />
    <rect
       inkscape:transform-center-y="-38.258994"
       inkscape:transform-center-x="-8.4870805"
       transform="matrix(-0.99953729,-0.03041721,0.07060792,0.99750415,0,0)"
       ry="0"
       y="549.55334"
       x="-999.94427"
       height="19.712711"
       width="36.113907"
       id="rect4825-9-3"
       style="opacity:0.73999999;fill:#000000;stroke-width:0.80084497" />
    <rect
       inkscape:transform-center-y="-38.258972"
       inkscape:transform-center-x="-8.4869331"
       transform="matrix(-0.99953729,-0.03041721,0.07060792,0.99750415,0,0)"
       ry="0"
       y="551.15588"
       x="-1082.8477"
       height="19.712711"
       width="36.113907"
       id="rect4825-9-3-3"
       style="opacity:0.73999999;fill:#000000;stroke-width:0.80084497" />
    <rect
       inkscape:transform-center-y="-38.258976"
       inkscape:transform-center-x="-8.4870173"
       transform="matrix(-0.99953729,-0.03041721,0.07060792,0.99750415,0,0)"
       ry="0"
       y="552.59113"
       x="-1167.2856"
       height="19.712711"
       width="36.113907"
       id="rect4825-9-3-2"
       style="opacity:0.73999999;fill:#000000;stroke-width:0.80084497" />
    <rect
       inkscape:transform-center-y="-38.259021"
       inkscape:transform-center-x="-8.4869058"
       transform="matrix(-0.99953729,-0.03041721,0.07060792,0.99750415,0,0)"
       ry="0"
       y="582.7713"
       x="-999.45673"
       height="19.712711"
       width="36.113907"
       id="rect4825-9-3-1"
       style="opacity:0.73999999;fill:#000000;stroke-width:0.80084497" />
  </g>
</svg>
